name analog
datacolumns 19
datarows 51
range 0.0 0.025
endheader
time	ground_force_vx	ground_force_vy	ground_force_vz	ground_force_px	ground_force_py	ground_force_pz	l_ground_force_vx	l_ground_force_vy	l_ground_force_vz	l_ground_force_px	l_ground_force_py	l_ground_force_pz	ground_torque_x	ground_torque_y	ground_torque_z	l_ground_torque_x	l_ground_torque_y	l_ground_torque_z
0.0	-0.0	-0.0	-0.0	-3.525309801101685	53.0383186340332	-321.39373779296875	8.24495792388916	-52.09954833984375	-294.43768310546875	-0.0	-0.0	-0.0	-0.0	-0.0	-0.0	62280.5625	-27819.693359375	8061.24951171875
0.0005	-0.0	-0.0	-0.0	-3.2892274856567383	53.2798957824707	-320.7669677734375	7.603020191192627	-52.31243515014648	-295.1358642578125	-0.0	-0.0	-0.0	-0.0	-0.0	-0.0	62428.6796875	-27916.6015625	8141.0009765625
0.001	-0.0	-0.0	-0.0	-3.1799139976501465	53.09008407592773	-321.76983642578125	7.785642147064209	-52.140960693359375	-294.4580383300781	-0.0	-0.0	-0.0	-0.0	-0.0	-0.0	62263.390625	-28019.61328125	8067.9033203125
0.0015	-0.0	-0.0	-0.0	-3.473177433013916	53.4465217590332	-319.6278686523437	8.124560356140137	-52.19269561767578	-294.6033020019531	-0.0	-0.0	-0.0	-0.0	-0.0	-0.0	62238.8203125	-27942.71875	8169.3017578125
0.002	-0.0	-0.0	-0.0	-2.886500358581543	53.16560745239258	-320.5857238769531	8.15040111541748	-52.37476348876953	-293.3089904785156	-0.0	-0.0	-0.0	-0.0	-0.0	-0.0	62302.8125	-27804.693359375	8197.09375
0.0025	-0.0	-0.0	-0.0	-3.211578369140625	53.2864990234375	-320.2860107421875	8.129986763000488	-52.22938537597656	-294.5387268066406	-0.0	-0.0	-0.0	-0.0	-0.0	-0.0	62400.21875	-27767.9296875	8052.47509765625
0.003	-0.0	-0.0	-0.0	-3.2752790451049805	53.440086364746094	-319.55255126953125	7.780814170837402	-52.26081848144531	-293.8843994140625	-0.0	-0.0	-0.0	-0.0	-0.0	-0.0	62405.6484375	-27766.806640625	8069.48486328125
0.0035	-0.0	-0.0	-0.0	-3.35174298286438	53.28091049194336	-320.78826904296875	7.869558334350586	-52.4061279296875	-294.357666015625	-0.0	-0.0	-0.0	-0.0	-0.0	-0.0	62177.7265625	-27862.904296875	7973.85302734375
0.004	-0.0	-0.0	-0.0	-3.4472599029541016	53.35719299316406	-320.43438720703125	8.009506225585938	-52.44368362426758	-294.7606506347656	-0.0	-0.0	-0.0	-0.0	-0.0	-0.0	62326.9296875	-27400.939453125	8052.4560546875
0.0045000000000000005	-0.0	-0.0	-0.0	-3.479209899902344	53.51016616821289	-320.2815856933594	7.7433695793151855	-52.60224533081055	-293.9090270996094	-0.0	-0.0	-0.0	-0.0	-0.0	-0.0	62226.5703125	-27673.244140625	8058.73974609375
0.005	-0.0	-0.0	-0.0	-3.453916072845459	53.185577392578125	-319.7543640136719	7.781028747558594	-52.34330368041992	-294.9087829589844	-0.0	-0.0	-0.0	-0.0	-0.0	-0.0	62449.0	-27567.31640625	8001.52978515625
0.0055	-0.0	-0.0	-0.0	-3.3579578399658203	53.21085357666016	-322.0006408691406	7.736868858337402	-52.456787109375	-296.00567626953125	-0.0	-0.0	-0.0	-0.0	-0.0	-0.0	62366.28125	-27594.185546875	7923.06982421875
0.006	-0.0	-0.0	-0.0	-3.6325058937072754	53.37092208862305	-319.881591796875	7.483385562896728	-52.444183349609375	-294.8335876464844	-0.0	-0.0	-0.0	-0.0	-0.0	-0.0	62355.296875	-27417.359375	7933.486328125
0.006500000000000001	-0.0	-0.0	-0.0	-3.486179113388061	53.46013641357422	-320.94122314453125	7.534037590026855	-52.60816955566406	-295.3822631835937	-0.0	-0.0	-0.0	-0.0	-0.0	-0.0	62251.61328125	-27431.041015625	7884.76318359375
0.007	-0.0	-0.0	-0.0	-3.593344449996948	53.87735748291016	-321.8741760253906	7.660906791687012	-52.80316925048828	-295.85650634765625	-0.0	-0.0	-0.0	-0.0	-0.0	-0.0	62229.33984375	-27316.251953125	7948.19287109375
0.0075	-0.0	-0.0	-0.0	-3.479209899902344	53.59223556518555	-322.0303955078125	7.483503818511963	-52.96800994873047	-294.8091125488281	-0.0	-0.0	-0.0	-0.0	-0.0	-0.0	62445.64453125	-27222.142578125	7941.8310546875
0.008	-0.0	-0.0	-0.0	-3.51897931098938	53.89167785644531	-323.2873229980469	7.387944221496582	-52.66456985473633	-295.1313171386719	-0.0	-0.0	-0.0	-0.0	-0.0	-0.0	62429.15234375	-27285.572265625	7817.1591796875
0.0085	-0.0	-0.0	-0.0	-3.722126245498657	53.941062927246094	-322.9043273925781	7.401817798614502	-52.91570663452149	-294.9349365234375	-0.0	-0.0	-0.0	-0.0	-0.0	-0.0	62588.3359375	-27233.94140625	7871.79638671875
0.009000000000000001	-0.0	-0.0	-0.0	-3.72419810295105	54.07747268676758	-321.8746337890625	7.071928977966309	-52.61490249633789	-296.3042297363281	-0.0	-0.0	-0.0	-0.0	-0.0	-0.0	62422.0703125	-27223.671875	7905.9521484375
0.0095	-0.0	-0.0	-0.0	-3.683314800262451	53.980716705322266	-321.296630859375	7.30625581741333	-52.26178359985352	-295.50811767578125	-0.0	-0.0	-0.0	-0.0	-0.0	-0.0	62364.9921875	-27131.779296875	7918.09423828125
0.01	-0.0	-0.0	-0.0	-3.3086400032043457	54.06198501586914	-322.1971435546875	7.185573577880859	-52.77729797363281	-294.9357604980469	-0.0	-0.0	-0.0	-0.0	-0.0	-0.0	62495.9453125	-27324.5625	7865.79833984375
0.0105	-0.0	-0.0	-0.0	-3.657630920410156	54.06982803344727	-321.8439025878906	7.331003665924072	-52.4384651184082	-295.25634765625	-0.0	-0.0	-0.0	-0.0	-0.0	-0.0	62374.609375	-27146.67578125	7787.69677734375
0.011	-0.0	-0.0	-0.0	-3.8684916496276855	53.89958190917969	-321.26531982421875	7.274284362792969	-52.08534240722656	-295.5085144042969	-0.0	-0.0	-0.0	-0.0	-0.0	-0.0	62307.6484375	-27170.6171875	7801.7998046875
0.0115	-0.0	-0.0	-0.0	-3.9414725303649902	54.10215759277344	-321.7468566894531	7.128939151763916	-52.29392623901367	-293.9186096191406	-0.0	-0.0	-0.0	-0.0	-0.0	-0.0	62246.44140625	-26760.677734375	7753.03955078125
0.012	-0.0	-0.0	-0.0	-3.9903132915496826	54.32033157348633	-323.7372436523437	7.161181449890137	-52.17491912841797	-293.0953369140625	-0.0	-0.0	-0.0	-0.0	-0.0	-0.0	61986.58203125	-26749.080078125	7682.61865234375
0.0125	-0.0	-0.0	-0.0	-3.9011383056640634	54.312931060791016	-322.80645751953125	7.129039764404297	-51.94961929321289	-294.81060791015625	-0.0	-0.0	-0.0	-0.0	-0.0	-0.0	62011.63671875	-26718.443359375	7809.806640625
0.013000000000000001	-0.0	-0.0	-0.0	-3.9903550148010254	54.49119567871094	-323.4794616699219	6.822036266326904	-52.04571914672852	-293.1299133300781	-0.0	-0.0	-0.0	-0.0	-0.0	-0.0	61499.265625	-26482.056640625	7731.32861328125
0.0135	-0.0	-0.0	-0.0	-3.764197826385498	54.44341659545898	-322.80645751953125	6.822653770446777	-51.34702301025391	-292.493896484375	-0.0	-0.0	-0.0	-0.0	-0.0	-0.0	61538.4921875	-26609.091796875	7628.95703125
0.014	-0.0	-0.0	-0.0	-4.216811656951904	54.410888671875	-323.77130126953125	6.959848880767822	-51.53963851928711	-292.3349609375	-0.0	-0.0	-0.0	-0.0	-0.0	-0.0	61537.10546875	-26585.65234375	7674.84521484375
0.0145	-0.0	-0.0	-0.0	-4.38878870010376	55.01734924316406	-323.8059387207031	6.838866233825684	-51.668190002441406	-290.494140625	-0.0	-0.0	-0.0	-0.0	-0.0	-0.0	61434.70703125	-26344.28125	7626.19287109375
0.015	-0.0	-0.0	-0.0	-4.047205448150635	55.08258819580078	-323.4772644042969	6.532233238220215	-51.49989318847656	-290.05059814453125	-0.0	-0.0	-0.0	-0.0	-0.0	-0.0	61245.4453125	-26324.34375	7577.5400390625
0.0155	-0.0	-0.0	-0.0	-4.404064655303955	54.99346160888672	-325.3503112792969	6.750455856323242	-51.185943603515625	-290.43310546875	-0.0	-0.0	-0.0	-0.0	-0.0	-0.0	61204.3125	-25968.68359375	7483.60791015625
0.016	-0.0	-0.0	-0.0	-4.671779632568359	55.14387893676758	-324.4791564941406	6.750704288482666	-51.37089920043945	-290.0856018066406	-0.0	-0.0	-0.0	-0.0	-0.0	-0.0	61243.40625	-25941.935546875	7604.55517578125
0.0165	-0.0	-0.0	-0.0	-4.808070182800293	55.28437042236328	-323.8291931152344	6.469497203826904	-51.21156311035156	-291.0304870605469	-0.0	-0.0	-0.0	-0.0	-0.0	-0.0	61186.93359375	-25893.369140625	7571.82421875
0.017	-0.0	-0.0	-0.0	-4.531126976013184	55.53753662109375	-324.7955322265625	6.878271102905273	-51.32356262207031	-289.5744934082031	-0.0	-0.0	-0.0	-0.0	-0.0	-0.0	61277.5234375	-25702.318359375	7488.1298828125
0.0175	-0.0	-0.0	-0.0	-4.516814231872559	55.64072036743164	-324.4798583984375	6.251255989074707	-50.98511505126953	-289.9816589355469	-0.0	-0.0	-0.0	-0.0	-0.0	-0.0	61017.02734375	-25736.83203125	7523.16943359375
0.018000000000000002	-0.0	-0.0	-0.0	-4.559337139129639	55.68732070922852	-325.3167419433594	6.635317325592041	-50.85877990722656	-289.7030944824219	-0.0	-0.0	-0.0	-0.0	-0.0	-0.0	60897.8125	-25715.654296875	7348.482421875
0.0185	-0.0	-0.0	-0.0	-4.371315002441406	56.27419662475586	-327.04461669921875	6.233322620391846	-50.88225936889648	-288.6910705566406	-0.0	-0.0	-0.0	-0.0	-0.0	-0.0	61023.7265625	-25621.79296875	7407.51904296875
0.019	-0.0	-0.0	-0.0	-4.338291645050049	56.38311004638672	-328.23492431640625	6.331120014190674	-50.62675476074219	-288.1786193847656	-0.0	-0.0	-0.0	-0.0	-0.0	-0.0	60651.140625	-25631.80859375	7318.6611328125
0.0195	-0.0	-0.0	-0.0	-4.662103176116943	56.785926818847656	-329.3861389160156	6.153701305389404	-50.70587158203125	-288.0865478515625	-0.0	-0.0	-0.0	-0.0	-0.0	-0.0	60221.2734375	-25399.6796875	7221.69970703125
0.02	-0.0	-0.0	-0.0	-4.672056674957275	56.78617858886719	-329.2947998046875	6.065073490142822	-50.08786392211914	-286.873779296875	-0.0	-0.0	-0.0	-0.0	-0.0	-0.0	60391.30859375	-24920.912109375	7196.77294921875
0.0205	-0.0	-0.0	-0.0	-4.784240245819092	57.201393127441406	-330.8088073730469	6.144240856170654	-49.957462310791016	-285.6973571777344	-0.0	-0.0	-0.0	-0.0	-0.0	-0.0	60268.51171875	-24892.603515625	7129.76025390625
0.021	-0.0	-0.0	-0.0	-4.514016628265381	57.49928283691406	-330.1932067871094	5.8125834465026855	-49.79986953735352	-283.9892272949219	-0.0	-0.0	-0.0	-0.0	-0.0	-0.0	60060.53125	-24614.23828125	7085.74560546875
0.021500000000000002	-0.0	-0.0	-0.0	-4.62851619720459	57.466346740722656	-331.68487548828125	6.05535888671875	-49.92467880249024	-284.7784729003906	-0.0	-0.0	-0.0	-0.0	-0.0	-0.0	59935.95703125	-24546.490234375	7032.9853515625
0.022	-0.0	-0.0	-0.0	-4.749117374420166	58.01342391967773	-331.635986328125	5.6446309089660645	-49.64661407470703	-283.1619873046875	-0.0	-0.0	-0.0	-0.0	-0.0	-0.0	59853.41796875	-24498.58984375	7040.45751953125
0.0225	-0.0	-0.0	-0.0	-4.504244804382324	58.36993789672852	-331.49737548828125	5.91076135635376	-49.46014404296875	-283.07147216796875	-0.0	-0.0	-0.0	-0.0	-0.0	-0.0	59909.0625	-24266.283203125	6955.00341796875
0.023	-0.0	-0.0	-0.0	-4.7733154296875	58.62635040283203	-334.64019775390625	6.077978610992432	-49.36174774169922	-281.85516357421875	-0.0	-0.0	-0.0	-0.0	-0.0	-0.0	59738.671875	-23966.48828125	6966.21826171875
0.0235	-0.0	-0.0	-0.0	-4.885010719299316	59.30501937866211	-332.5596618652344	5.999373435974121	-49.19518280029297	-281.01739501953125	-0.0	-0.0	-0.0	-0.0	-0.0	-0.0	59364.8125	-23942.76171875	6861.9873046875
0.024	-0.0	-0.0	-0.0	-4.761886596679688	59.3384895324707	-335.9639892578125	5.500068664550781	-48.75357055664063	-280.06060791015625	-0.0	-0.0	-0.0	-0.0	-0.0	-0.0	59183.0859375	-23890.55859375	6940.47900390625
0.0245	-0.0	-0.0	-0.0	-4.493942260742188	59.70634078979492	-336.5805053710937	5.555734634399414	-48.42280960083008	-279.882568359375	-0.0	-0.0	-0.0	-0.0	-0.0	-0.0	58966.6171875	-23537.322265625	6821.9453125
0.025	-0.0	-0.0	-0.0	-4.293150424957275	60.88710021972656	-338.34637451171875	5.366122722625732	-48.102420806884766	-278.2327880859375	-0.0	-0.0	-0.0	-0.0	-0.0	-0.0	58989.15234375	-23665.728515625	6803.27685546875
